<svg xmlns="http://www.w3.org/2000/svg" version="1.1" viewBox="-5.0 -10.0 110.0 135.0">
 <g>
  <path d="m50.094 59.875c16.461 0.10938 21.52-19.66 21.246-31.676 1.1406-14.785-12.949-19.59-21.227-19.625-2.3672 0.050781-21.371 0.80859-21.449 18.352-0.47266 13.23 4.8477 33.141 21.434 32.953z"/>
  <path d="m94.355 75.82c-2.0898-12.086-11-21.445-22.57-25.117-4.1328 8.5234-11.906 14.32-21.605 14.34-9.8438 0.050781-17.77-5.7266-21.934-14.359l-2.9102 1.1523c-10.242 4.0117-17.578 12.879-19.59 23.621-1.207 4.8984 1.6641 9.9258 6.4219 11.398 16.316 6.1016 59.43 6.0898 75.68 0 4.6328-1.4453 7.4375-6.1641 6.5078-11.035z"/>
 </g>
<text x="0.0" y="117.5" font-size="5.0" font-weight="bold" font-family="Arbeit Regular, Helvetica, Arial-Unicode, Arial, Sans-serif" fill="#000000">Created by Sentya Irma</text><text x="0.0" y="122.5" font-size="5.0" font-weight="bold" font-family="Arbeit Regular, Helvetica, Arial-Unicode, Arial, Sans-serif" fill="#000000">from Noun Project</text></svg>