<svg xmlns="http://www.w3.org/2000/svg" version="1.1" viewBox="-5.0 -10.0 110.0 135.0">
 <path d="m64.859 31.031c-0.96875-7.3398-7.2578-13.031-14.859-13.031s-13.891 5.6914-14.859 13.031c-5.7695 0.32812-10.719 4.5312-11.91 10.238l-5.4609 26.191c-0.80078 3.8203 0.16016 7.75 2.6211 10.77 2.4688 3.0312 6.1211 4.7695 10.02 4.7695h39.18c3.8984 0 7.5508-1.7383 10.012-4.7617 2.4609-3.0312 3.4219-6.9492 2.6211-10.77l-5.4609-26.191c-1.1836-5.7188-6.1328-9.918-11.902-10.246zm-14.859-9.0312c5.3789 0 9.8594 3.8906 10.809 9h-21.617c0.94922-5.1094 5.4297-9 10.809-9zm-9 29c-1.9297 0-3.5-1.5703-3.5-3.5s1.5703-3.5 3.5-3.5 3.5 1.5703 3.5 3.5-1.5703 3.5-3.5 3.5zm18 0c-1.9297 0-3.5-1.5703-3.5-3.5s1.5703-3.5 3.5-3.5 3.5 1.5703 3.5 3.5-1.5703 3.5-3.5 3.5z"/>
<text x="0.0" y="117.5" font-size="5.0" font-weight="bold" font-family="Arbeit Regular, Helvetica, Arial-Unicode, Arial, Sans-serif" fill="#000000">Created by Icon Master</text><text x="0.0" y="122.5" font-size="5.0" font-weight="bold" font-family="Arbeit Regular, Helvetica, Arial-Unicode, Arial, Sans-serif" fill="#000000">from Noun Project</text></svg>