<svg xmlns="http://www.w3.org/2000/svg" xmlns:xlink="http://www.w3.org/1999/xlink" viewBox="0 0 48 60" version="1.1" x="0px" y="0px"><title>5.11</title><desc>Created with Sketch.</desc><g stroke="none" stroke-width="1" fill="none" fill-rule="evenodd"><g fill="#000000"><g transform="translate(0.000000, 0.000000)"><path d="M26.252035,12 C27.1401206,8.54954557 30.2723211,6 34,6 C37.7276789,6 40.8598794,8.54954557 41.747965,12 L45.9986107,12 C47.1039475,12 48,12.8877296 48,14 C48,15.1045695 47.1050616,16 45.9986107,16 L41.747965,16 C40.8598794,19.4504544 37.7276789,22 34,22 C30.2723211,22 27.1401206,19.4504544 26.252035,16 L2.00138927,16 C0.896052496,16 0,15.1122704 0,14 C0,12.8954305 0.894938439,12 2.00138927,12 L26.252035,12 Z M6.25203497,32 C7.14012056,28.5495456 10.2723211,26 14,26 C17.7276789,26 20.8598794,28.5495456 21.747965,32 L45.9986107,32 C47.1039475,32 48,32.8877296 48,34 C48,35.1045695 47.1050616,36 45.9986107,36 L21.747965,36 C20.8598794,39.4504544 17.7276789,42 14,42 C10.2723211,42 7.14012056,39.4504544 6.25203497,36 L2.00138927,36 C0.896052496,36 0,35.1122704 0,34 C0,32.8954305 0.894938439,32 2.00138927,32 L6.25203497,32 Z M14,38 C16.209139,38 18,36.209139 18,34 C18,31.790861 16.209139,30 14,30 C11.790861,30 10,31.790861 10,34 C10,36.209139 11.790861,38 14,38 Z M34,18 C36.209139,18 38,16.209139 38,14 C38,11.790861 36.209139,10 34,10 C31.790861,10 30,11.790861 30,14 C30,16.209139 31.790861,18 34,18 Z"/></g></g></g><text x="0" y="63" fill="#000000" font-size="5px" font-weight="bold" font-family="'Helvetica Neue', Helvetica, Arial-Unicode, Arial, Sans-serif">Created by Тимур Минвалеев</text><text x="0" y="68" fill="#000000" font-size="5px" font-weight="bold" font-family="'Helvetica Neue', Helvetica, Arial-Unicode, Arial, Sans-serif">from the Noun Project</text></svg>